<svg xmlns="http://www.w3.org/2000/svg" width="1280" height="168" viewBox="0 0 1280 168" role="img" aria-label="Mneme — Memory forensics automation on Volatility3">
  <defs>
    <linearGradient id="rail" x1="0" y1="0" x2="0" y2="1">
      <stop offset="0" stop-color="#6d28d9"/><stop offset="1" stop-color="#6d28d9" stop-opacity="0.55"/>
    </linearGradient>
    <linearGradient id="tile" x1="0" y1="0" x2="1" y2="1">
      <stop offset="0" stop-color="#6d28d9"/><stop offset="1" stop-color="#6d28d9" stop-opacity="0.82"/>
    </linearGradient>
  </defs>
  <rect width="1280" height="168" fill="#ffffff"/>
  <circle cx="1210" cy="84" r="150" fill="#6d28d9" opacity="0.05"/>
  <circle cx="1130" cy="208" r="120" fill="#6d28d9" opacity="0.045"/>
  <rect x="52" y="58" width="52" height="52" rx="13" fill="url(#tile)"/>
  <rect x="69.0" y="75.0" width="18" height="18" rx="3" stroke="#fff" stroke-width="2.4" fill="none" stroke-linecap="round" stroke-linejoin="round"/><path d="M65.0 80.0 h4 M65.0 88.0 h4 M87.0 80.0 h4 M87.0 88.0 h4 M74.0 71.0 v4 M82.0 71.0 v4 M74.0 93.0 v4 M82.0 93.0 v4" stroke="#fff" stroke-width="2.4" fill="none" stroke-linecap="round" stroke-linejoin="round"/>
  <text x="130" y="72" font-family="-apple-system,Segoe UI,Roboto,Helvetica,Arial,sans-serif" font-size="31" font-weight="650" letter-spacing="-0.5" fill="#101318">Mneme</text>
  <text x="130" y="100" font-family="-apple-system,Segoe UI,Roboto,Helvetica,Arial,sans-serif" font-size="15.5" fill="#4b5560">Memory forensics automation on Volatility3</text>
  <text x="130" y="123" font-family="ui-monospace,SFMono-Regular,Menlo,monospace" font-size="12.5" fill="#94a0ad">Python</text><circle cx="184" cy="119" r="1.6" fill="#6d28d9"/><text x="197" y="123" font-family="ui-monospace,SFMono-Regular,Menlo,monospace" font-size="12.5" fill="#94a0ad">Volatility3</text><circle cx="291" cy="119" r="1.6" fill="#6d28d9"/><text x="304" y="123" font-family="ui-monospace,SFMono-Regular,Menlo,monospace" font-size="12.5" fill="#94a0ad">MITRE ATT&amp;CK</text><circle cx="406" cy="119" r="1.6" fill="#6d28d9"/><text x="419" y="123" font-family="ui-monospace,SFMono-Regular,Menlo,monospace" font-size="12.5" fill="#94a0ad">STIX 2.1</text>
  <rect x="0" y="0" width="5" height="168" fill="url(#rail)"/>
  <rect x="0.5" y="0.5" width="1279" height="167" rx="0" fill="none" stroke="#e6eaef" stroke-width="1"/>
</svg>