<svg xmlns="http://www.w3.org/2000/svg" width="1370" height="240" viewBox="0 0 1370 240">
  <defs><marker id="arw" markerWidth="10" markerHeight="10" refX="8" refY="3" orient="auto">
    <path d="M0,0 L8,3 L0,6 Z" fill="#9aa7b4"/></marker></defs>
  <rect width="1370" height="240" fill="#0d1117"/><g opacity="0.5"><line x1="0" y1="0" x2="0" y2="240" stroke="#1b2430"/><line x1="40" y1="0" x2="40" y2="240" stroke="#1b2430"/><line x1="80" y1="0" x2="80" y2="240" stroke="#1b2430"/><line x1="120" y1="0" x2="120" y2="240" stroke="#1b2430"/><line x1="160" y1="0" x2="160" y2="240" stroke="#1b2430"/><line x1="200" y1="0" x2="200" y2="240" stroke="#1b2430"/><line x1="240" y1="0" x2="240" y2="240" stroke="#1b2430"/><line x1="280" y1="0" x2="280" y2="240" stroke="#1b2430"/><line x1="320" y1="0" x2="320" y2="240" stroke="#1b2430"/><line x1="360" y1="0" x2="360" y2="240" stroke="#1b2430"/><line x1="400" y1="0" x2="400" y2="240" stroke="#1b2430"/><line x1="440" y1="0" x2="440" y2="240" stroke="#1b2430"/><line x1="480" y1="0" x2="480" y2="240" stroke="#1b2430"/><line x1="520" y1="0" x2="520" y2="240" stroke="#1b2430"/><line x1="560" y1="0" x2="560" y2="240" stroke="#1b2430"/><line x1="600" y1="0" x2="600" y2="240" stroke="#1b2430"/><line x1="640" y1="0" x2="640" y2="240" stroke="#1b2430"/><line x1="680" y1="0" x2="680" y2="240" stroke="#1b2430"/><line x1="720" y1="0" x2="720" y2="240" stroke="#1b2430"/><line x1="760" y1="0" x2="760" y2="240" stroke="#1b2430"/><line x1="800" y1="0" x2="800" y2="240" stroke="#1b2430"/><line x1="840" y1="0" x2="840" y2="240" stroke="#1b2430"/><line x1="880" y1="0" x2="880" y2="240" stroke="#1b2430"/><line x1="920" y1="0" x2="920" y2="240" stroke="#1b2430"/><line x1="960" y1="0" x2="960" y2="240" stroke="#1b2430"/><line x1="1000" y1="0" x2="1000" y2="240" stroke="#1b2430"/><line x1="1040" y1="0" x2="1040" y2="240" stroke="#1b2430"/><line x1="1080" y1="0" x2="1080" y2="240" stroke="#1b2430"/><line x1="1120" y1="0" x2="1120" y2="240" stroke="#1b2430"/><line x1="1160" y1="0" x2="1160" y2="240" stroke="#1b2430"/><line x1="1200" y1="0" x2="1200" y2="240" stroke="#1b2430"/><line x1="1240" y1="0" x2="1240" y2="240" stroke="#1b2430"/><line x1="1280" y1="0" x2="1280" y2="240" stroke="#1b2430"/><line x1="1320" y1="0" x2="1320" y2="240" stroke="#1b2430"/><line x1="1360" y1="0" x2="1360" y2="240" stroke="#1b2430"/><line x1="0" y1="0" x2="1370" y2="0" stroke="#1b2430"/><line x1="0" y1="40" x2="1370" y2="40" stroke="#1b2430"/><line x1="0" y1="80" x2="1370" y2="80" stroke="#1b2430"/><line x1="0" y1="120" x2="1370" y2="120" stroke="#1b2430"/><line x1="0" y1="160" x2="1370" y2="160" stroke="#1b2430"/><line x1="0" y1="200" x2="1370" y2="200" stroke="#1b2430"/></g><text x="60" y="60" font-family="-apple-system,sans-serif" font-size="22" font-weight="700" fill="#e6edf3">Mneme pipeline</text><g><rect x="60" y="110" width="170" height="74" rx="10" fill="#111a24" stroke="#a78bfa" stroke-opacity="0.7"/><text x="145" y="145" text-anchor="middle" font-family="-apple-system,Segoe UI,sans-serif" font-size="17" font-weight="600" fill="#e6edf3">run</text><text x="145" y="170" text-anchor="middle" font-family="ui-monospace,Menlo,monospace" font-size="12" fill="#9aa7b4">dump → raw</text></g><line x1="236" y1="147.0" x2="270" y2="147.0" stroke="#9aa7b4" stroke-width="2" marker-end="url(#arw)"/><g><rect x="276" y="110" width="170" height="74" rx="10" fill="#111a24" stroke="#a78bfa" stroke-opacity="0.7"/><text x="361" y="145" text-anchor="middle" font-family="-apple-system,Segoe UI,sans-serif" font-size="17" font-weight="600" fill="#e6edf3">parse</text><text x="361" y="170" text-anchor="middle" font-family="ui-monospace,Menlo,monospace" font-size="12" fill="#9aa7b4">→ ECS</text></g><line x1="452" y1="147.0" x2="486" y2="147.0" stroke="#9aa7b4" stroke-width="2" marker-end="url(#arw)"/><g><rect x="492" y="110" width="170" height="74" rx="10" fill="#111a24" stroke="#a78bfa" stroke-opacity="0.7"/><text x="577" y="145" text-anchor="middle" font-family="-apple-system,Segoe UI,sans-serif" font-size="17" font-weight="600" fill="#e6edf3">detect</text><text x="577" y="170" text-anchor="middle" font-family="ui-monospace,Menlo,monospace" font-size="12" fill="#9aa7b4">MITRE ATT&amp;CK</text></g><line x1="668" y1="147.0" x2="702" y2="147.0" stroke="#9aa7b4" stroke-width="2" marker-end="url(#arw)"/><g><rect x="708" y="110" width="170" height="74" rx="10" fill="#111a24" stroke="#a78bfa" stroke-opacity="0.7"/><text x="793" y="145" text-anchor="middle" font-family="-apple-system,Segoe UI,sans-serif" font-size="17" font-weight="600" fill="#e6edf3">timeline</text><text x="793" y="170" text-anchor="middle" font-family="ui-monospace,Menlo,monospace" font-size="12" fill="#9aa7b4">cluster</text></g><line x1="884" y1="147.0" x2="918" y2="147.0" stroke="#9aa7b4" stroke-width="2" marker-end="url(#arw)"/><g><rect x="924" y="110" width="170" height="74" rx="10" fill="#111a24" stroke="#a78bfa" stroke-opacity="0.7"/><text x="1009" y="145" text-anchor="middle" font-family="-apple-system,Segoe UI,sans-serif" font-size="17" font-weight="600" fill="#e6edf3">report</text><text x="1009" y="170" text-anchor="middle" font-family="ui-monospace,Menlo,monospace" font-size="12" fill="#9aa7b4">HTML</text></g><line x1="1100" y1="147.0" x2="1134" y2="147.0" stroke="#9aa7b4" stroke-width="2" marker-end="url(#arw)"/><g><rect x="1140" y="110" width="170" height="74" rx="10" fill="#111a24" stroke="#a78bfa" stroke-opacity="0.7"/><text x="1225" y="145" text-anchor="middle" font-family="-apple-system,Segoe UI,sans-serif" font-size="17" font-weight="600" fill="#e6edf3">export</text><text x="1225" y="170" text-anchor="middle" font-family="ui-monospace,Menlo,monospace" font-size="12" fill="#9aa7b4">STIX 2.1</text></g></svg>